<svg xmlns="http://www.w3.org/2000/svg" viewBox="0 0 350 120" width="350" height="120">
  <defs>
    <linearGradient id="textGrad" x1="0%" y1="0%" x2="100%" y2="0%">
      <stop offset="0%" style="stop-color:#f6a5c0;stop-opacity:1" />
      <stop offset="100%" style="stop-color:#837ab6;stop-opacity:1" />
    </linearGradient>
  </defs>
  
  <!-- Partie Icône -->
  <g transform="translate(10, 10)">
    <rect width="100" height="100" rx="25" fill="#250e2c" />
    <rect x="15" y="55" width="10" height="30" fill="url(#textGrad)" rx="3" />
    <rect x="30" y="35" width="10" height="50" fill="url(#textGrad)" rx="3" />
    <rect x="45" y="20" width="10" height="65" fill="url(#textGrad)" rx="3" />
    <path d="M50 10 L53 18 L61 19 L55 26 L57 34 L50 30 L43 34 L45 26 L39 19 L47 18 Z" fill="#f7c2ca" />
    <path d="M46 45 C46 42 50 38 50 38 C50 38 54 42 54 45 C54 49 50 53 50 53 C50 53 46 49 46 45 Z" fill="#FFFFFF" opacity="0.9" />
  </g>
  
  <!-- Partie Texte -->
  <g transform="translate(125, 35)">
    <text x="0" y="0" font-family="'Inter', 'Segoe UI', sans-serif" font-weight="700" font-size="28" fill="url(#textGrad)">Influence</text>
    <text x="0" y="35" font-family="'Inter', 'Segoe UI', sans-serif" font-weight="300" font-size="28" fill="#250e2c">TUNISIE</text>
    <line x1="0" y1="45" x2="180" y2="45" stroke="#cc8db3" stroke-width="3" stroke-linecap="round" />
    <text x="0" y="65" font-family="'Inter', sans-serif" font-weight="400" font-size="12" fill="#9d85b6" letter-spacing="3">CLASSIFICATION &amp; SENTIMENTS</text>
  </g>
</svg>