<svg xmlns="http://www.w3.org/2000/svg" viewBox="0 0 350 120" width="100%" height="100%">
  <defs>
    <linearGradient id="textGrad" x1="0%" y1="0%" x2="100%" y2="0%">
      <stop offset="0%" style="stop-color:#f6a5c0;stop-opacity:1" />
      <stop offset="100%" style="stop-color:#cc8db3;stop-opacity:1" />
    </linearGradient>
    <linearGradient id="paletteGrad" x1="0%" y1="0%" x2="100%" y2="100%">
      <stop offset="0%" style="stop-color:#837ab6;stop-opacity:1" />
      <stop offset="50%" style="stop-color:#cc8db3;stop-opacity:1" />
      <stop offset="100%" style="stop-color:#f6a5c0;stop-opacity:1" />
    </linearGradient>
  </defs>
  
  <!-- Icône -->
  <g transform="translate(10, 10)">
    <rect width="100" height="100" rx="25" fill="#250e2c" />
    <rect x="18" y="58" width="10" height="27" fill="url(#paletteGrad)" rx="3" />
    <rect x="33" y="38" width="10" height="47" fill="url(#paletteGrad)" rx="3" />
    <rect x="48" y="23" width="10" height="62" fill="url(#paletteGrad)" rx="3" />
    <path d="M53 13 L56 21 L64 22 L58 29 L60 37 L53 33 L46 37 L48 29 L42 22 L50 21 Z" fill="#f7c2ca" />
    <path d="M48 47 C48 44 53 40 53 40 C53 40 58 44 58 47 C58 51 53 56 53 56 C53 56 48 51 48 47 Z" fill="#FFFFFF" opacity="0.9" />
  </g>
  
  <!-- Texte (version pour fond sombre - auth page) -->
  <g transform="translate(125, 30)">
    <text x="0" y="0" font-family="Arial, Helvetica, sans-serif" font-weight="700" font-size="28" fill="url(#textGrad)">Influence</text>
    <text x="0" y="35" font-family="Arial, Helvetica, sans-serif" font-weight="300" font-size="28" fill="#250e2c" letter-spacing="3">TUNISIE</text>
    <line x1="0" y1="45" x2="210" y2="45" stroke="#cc8db3" stroke-width="3" stroke-linecap="round" />
    <text x="0" y="65" font-family="Arial, Helvetica, sans-serif" font-weight="400" font-size="11" fill="#9d85b6" letter-spacing="2">CLASSIFICATION &amp; SENTIMENTS</text>
  </g>
</svg>